<svg xmlns="http://www.w3.org/2000/svg" version="1.1" xmlns:xlink="http://www.w3.org/1999/xlink" xmlns:svgjs="http://svgjs.com/svgjs" width="512" height="512" x="0" y="0" viewBox="0 0 58 58" style="enable-background:new 0 0 512 512" xml:space="preserve" class=""><g><g xmlns="http://www.w3.org/2000/svg" id="Page-1" fill="none" fill-rule="evenodd"><g id="017---First-Flag" fill-rule="nonzero"><path id="Shape" d="m2 36h5v21c0 .5522847-.44771525 1-1 1h-3c-.55228475 0-1-.4477153-1-1z" fill="#95a5a5" data-original="#95a5a5" style=""></path><path id="Shape" d="m3 0h3c.55228475 0 1 .44771525 1 1v8h-5v-8c0-.55228475.44771525-1 1-1z" fill="#95a5a5" data-original="#95a5a5" style=""></path><path id="Shape" d="m38 17h18c.7706942.0012286 1.4721113.4451783 1.8030446 1.1412058s.2324944 1.5202768-.2530446 2.1187942l-9.33 11.48c-.5900556.7363793-.5900556 1.7836207 0 2.52l9.33 11.48c.485539.5985174.5839779 1.4227667.2530446 2.1187942s-1.0323504 1.1399772-1.8030446 1.1412058h-34c-1.1045695 0-2-.8954305-2-2v-9z" fill="#c03a2b" data-original="#c03a2b" style=""></path><rect id="Rectangle-path" fill="#e64c3c" height="32" rx="2" width="38" y="6" data-original="#e64c3c" style="" class=""></rect><path id="Shape" d="m12 28h-3c-.55228475 0-1 .4477153-1 1v3c0 .5522847.44771525 1 1 1h13c.5522847 0 1-.4477153 1-1v-3c0-.5522847-.4477153-1-1-1h-3c-.5522847 0-1-.4477153-1-1v-13c-.0032948-1.1032019-.8967981-1.9967052-2-2h-2.17c-.5315729-.0004182-1.0414438.2107987-1.417.587l-4.843 4.843c-.37548907.3755776-.58249423.8874524-.57363463 1.4184628.0088596.5310105.23282545 1.0356948.62063463 1.3985372l1.093 1.023c.7635451.7211214 1.9636775.6988967 2.7-.05l1.59-1.87v7.65c0 .5522847-.4477153 1-1 1z" fill="#f0c419" data-original="#f0c419" style="" class=""></path><path id="Shape" d="m24 12h2c.5522847 0 1-.4477153 1-1s-.4477153-1-1-1h-2c-1.6568542 0-2.9999999 1.3431458-2.9999999 3s1.3431457 3 2.9999999 3c.5522847 0 1 .4477153 1 1s-.4477153 1-1 1h-2c-.5522847 0-1 .4477153-1 1s.4477153 1 1 1h2c1.6568542 0 3-1.3431458 3-3s-1.3431458-3-3-3c-.5522847 0-1-.4477153-1-1s.4477153-1 1-1z" fill="#f3d55b" data-original="#f3d55b" style="" class=""></path><path id="Shape" d="m33 18h-1c-.5522847 0-1-.4477153-1-1v-2h1c.5522847 0 1-.4477153 1-1s-.4477153-1-1-1h-1v-2c0-.5522847-.4477153-1-1-1s-1 .4477153-1 1v2c-.5522847 0-1 .4477153-1 1s.4477153 1 1 1v2c0 1.6568542 1.3431458 3 3 3h1c.5522847 0 1-.4477153 1-1s-.4477153-1-1-1z" fill="#f3d55b" data-original="#f3d55b" style="" class=""></path><path id="Shape" d="m36.94 37.77-16.58 10.38c-.236147-.336827-.3619331-.7386436-.36-1.15v-9h16c.3275292.0022216.6504988-.0768029.94-.23z" fill="#802f34" data-original="#802f34" style=""></path></g></g></g></svg>