<svg xmlns="http://www.w3.org/2000/svg" version="1.1" xmlns:xlink="http://www.w3.org/1999/xlink" xmlns:svgjs="http://svgjs.com/svgjs" width="512" height="512" x="0" y="0" viewBox="0 0 60 60" style="enable-background:new 0 0 512 512" xml:space="preserve" class=""><g><g xmlns="http://www.w3.org/2000/svg" id="Page-1" fill="none" fill-rule="evenodd"><g id="017---First-Flag" fill="rgb(0,0,0)" fill-rule="nonzero"><path id="Shape" d="m9.022 23c1.1193466 1.035634 2.8431612 1.0486341 3.978.03v4.97h-3c-1.1045695 0-2 .8954305-2 2v3c0 1.1045695.8954305 2 2 2h13c1.1045695 0 2-.8954305 2-2v-3c0-1.1045695-.8954305-2-2-2h-3v-13c0-1.6568542-1.3431458-3-3-3h-2.17c-.7971192-.0021352-1.561957.3147468-2.124.88l-4.843 4.843c-.56750584.5669204-.88043226 1.3400147-.86704592 2.1420636.01338633.8020489.35193743 1.56427.93804592 2.1119364zm.255-3.859 4.843-4.843c.1874029-.1901209.4430441-.2974182.71-.298h2.17c.5522847 0 1 .4477153 1 1v13c0 1.1045695.8954305 2 2 2h3v3h-13v-3h3c1.1045695 0 2-.8954305 2-2v-7.65c.0001774-.4193275-.2612807-.7942301-.6548377-.9389661-.3935569-.1447361-.8356155-.0285615-1.1071623.2909661l-1.538 1.816c-.3562655.3572489-.9318505.3669896-1.3.022l-1.1-1.023c-.19041138-.1774466-.30051917-.4246666-.30504503-.6849036s.09691899-.5111361.28104503-.6950964z" fill="#000000" data-original="#000000" style=""></path><path id="Shape" d="m25 19h-2c-.5522847 0-1 .4477153-1 1s.4477153 1 1 1h2c1.6568542 0 3-1.3431458 3-3s-1.3431458-3-3-3c-.5522847 0-1-.4477153-1-1s.4477153-1 1-1h2c.5522847 0 1-.4477153 1-1s-.4477153-1-1-1h-2c-1.6568542 0-2.9999999 1.3431458-2.9999999 3s1.3431457 3 2.9999999 3c.5522847 0 1 .4477153 1 1s-.4477153 1-1 1z" fill="#000000" data-original="#000000" style=""></path><path id="Shape" d="m30 16v2c0 1.6568542 1.3431458 3 3 3h1c.5522847 0 1-.4477153 1-1s-.4477153-1-1-1h-1c-.5522847 0-1-.4477153-1-1v-2h1c.5522847 0 1-.4477153 1-1s-.4477153-1-1-1h-1v-2c0-.5522847-.4477153-1-1-1s-1 .4477153-1 1v2c-.5522847 0-1 .4477153-1 1s.4477153 1 1 1z" fill="#000000" data-original="#000000" style=""></path><path id="Shape" d="m2 39.816v18.184c0 1.1045695.8954305 2 2 2h3c1.1045695 0 2-.8954305 2-2v-18h11v8c-.0007396.5928181.175825 1.1723121.507 1.664 0 0 0 .012.006.017.0493039.0770419.1084723.1473044.176.209.5638519.6991611 1.4128097 1.1069254 2.311 1.11h34c1.1566011-.001146 2.2095326-.6670715 2.7062639-1.7115741.4967313-1.0445025.3487813-2.281528-.3802639-3.1794259l-9.326-11.478c-.2944662-.3683867-.2944662-.8916133 0-1.26l9.331-11.482c.7283644-.898636.8751901-2.1359727.3773605-3.1801121s-1.5516145-1.7090436-2.7083605-1.7088879h-17v-8c0-1.65685425-1.3431458-3-3-3h-28v-4c0-1.1045695-.8954305-2-2-2h-3c-1.1045695 0-2 .8954305-2 2v4.184c-1.19435086.42225455-1.99474861 1.54921457-2 2.816v28c.00525139 1.2667854.80564914 2.3937454 2 2.816zm5 18.184h-3v-18h3zm27.09-18-12.09 7.57v-7.57zm22.91-21c.3846073.0016913.7341615.2238097.8990465.5712842.1648851.3474745.1158775.7587202-.1260465 1.0577158l-9.331 11.483c-.884362 1.1044478-.884362 2.6745522 0 3.779l9.329 11.478c.2429447.2986794.2928442.7103058.1283026 1.0583828s-.5142985.5707793-.8993026.5726172h-33.516l14.987-9.382c.019-.012.029-.032.047-.045.9150481-.5344491 1.4788548-1.5133119 1.482-2.573v-18zm-53-17h3v4h-3zm-2 7c0-.55228475.44771525-1 1-1h34c.5522847 0 1 .44771525 1 1v28c0 .5522847-.4477153 1-1 1h-34c-.55228475 0-1-.4477153-1-1z" fill="#000000" data-original="#000000" style=""></path></g></g></g></svg>