<svg xmlns="http://www.w3.org/2000/svg" version="1.1" xmlns:xlink="http://www.w3.org/1999/xlink" xmlns:svgjs="http://svgjs.com/svgjs" width="512" height="512" x="0" y="0" viewBox="0 0 64 64" style="enable-background:new 0 0 512 512" xml:space="preserve" class=""><g><g xmlns="http://www.w3.org/2000/svg"><path d="m56 8h4v48h-4z" fill="#c1c8d1" data-original="#c1c8d1" class=""></path><path d="m4 8h4v48h-4z" fill="#c1c8d1" data-original="#c1c8d1" class=""></path><path d="m2 2h60v6h-60z" fill="#cacfd5" data-original="#8892a0" class=""></path><path d="m2 56h60v6h-60z" fill="#cacfd5" data-original="#8892a0" class=""></path><path d="m4 4h2v2h-2z" fill="#ffffff" data-original="#ffffff" class=""></path><path d="m58 4h2v2h-2z" fill="#ffffff" data-original="#ffffff" class=""></path><path d="m48 8h-2v18h-8v-18h-2v18h-8v-18h-2v18h-8v-18h-2v18h-8v2h8v8h-8v2h8v18h2v-18h8v18h2v-18h8v18h2v-18h8v18h2v-18h8v-2h-8v-8h8v-2h-8zm-30 28v-8h8v8zm10 0v-8h8v8zm18 0h-8v-8h8z" fill="#b2b9c3" data-original="#a8b0bc" class=""></path><path d="m4 58h2v2h-2z" fill="#ffffff" data-original="#ffffff" class=""></path><path d="m58 58h2v2h-2z" fill="#ffffff" data-original="#ffffff" class=""></path><path d="m13 35v-4h1v-2h-4v2h1v4z" fill="#b2b9c3" data-original="#a8b0bc" class=""></path></g></g></svg>