<svg id="Layer_1" enable-background="new 0 0 511.995 511.995" height="512" viewBox="0 0 511.995 511.995" width="512" xmlns="http://www.w3.org/2000/svg"><g><g><path d="m467.972 511.995c-.001 0-.001 0-.002 0l-424-.056c-3.982 0-7.8-1.584-10.613-4.402s-4.391-6.639-4.385-10.621l.051-33.965c.101-68.071 55.586-123.451 123.685-123.451h206.629c33.012 0 64.107 12.935 87.56 36.423 23.345 23.379 36.175 54.303 36.126 87.073l-.051 34.021c-.013 8.275-6.726 14.978-15 14.978z" fill="#ff637b"/></g><path d="m446.897 375.923c-23.452-23.488-54.548-36.423-87.56-36.423h-103.314v172.467l211.947.028h.002c8.274 0 14.987-6.703 15-14.978l.051-34.021c.049-32.77-12.781-63.694-36.126-87.073z" fill="#ff0059"/><g><path d="m297.924 486.829c-4.325 0-8.439-1.867-11.288-5.122l-30.614-34.983-30.613 34.983c-2.848 3.255-6.963 5.122-11.288 5.122-35.859 0-69.138-13.924-96.237-40.267-22.197-21.578-39.328-51.124-46.999-81.063-1.471-5.743.578-11.815 5.23-15.491l63.031-49.813c2.64-2.086 5.904-3.224 9.269-3.231l214.566-.463h.032c3.375 0 6.652 1.138 9.301 3.231l63.616 50.276c4.651 3.676 6.701 9.748 5.229 15.491-15.446 60.293-69.607 121.33-143.235 121.33z" fill="#fff4f4"/></g><path d="m435.93 350.008-63.616-50.276c-2.648-2.093-5.926-3.231-9.301-3.231-.011 0-.021 0-.032 0l-106.958.231v149.994l30.613 34.983c2.849 3.255 6.963 5.122 11.288 5.122 73.628 0 127.789-61.037 143.235-121.33 1.472-5.746-.578-11.817-5.229-15.493z" fill="#f6efea"/><path clip-rule="evenodd" d="m142.955 170.487h225.362v136.851h-225.362z" fill="#ffe4c1" fill-rule="evenodd"/><path clip-rule="evenodd" d="m256.023 170.487h112.294v136.851h-112.294z" fill="#fdd1a3" fill-rule="evenodd"/><path d="m378.992 143.58c-8.284 0-15 6.716-15 15v48c0 37.246-19.904 72.571-51.944 92.189-11.312-20.472-32.791-33.189-56.056-33.189s-44.744 12.717-56.055 33.188v.001c-31.014-18.989-50.655-52.695-51.882-88.614v-46.575c0-8.284-6.716-15-15-15s-15 6.716-15 15v78.584c0 44.135 13.512 87.158 38.046 121.145 24.563 34.026 58.883 57.433 96.638 65.906 1.082.243 2.184.364 3.285.364 1.102 0 2.203-.122 3.285-.364 37.754-8.474 72.074-31.88 96.638-65.906 24.534-33.987 38.046-77.01 38.046-121.145v-83.584c-.001-8.284-6.717-15-15.001-15z" fill="#74564f"/><path d="m378.992 143.58c-8.284 0-15 6.716-15 15v48c0 37.246-19.904 72.571-51.944 92.189-11.306-20.463-32.772-33.177-56.025-33.189v164c1.102 0 2.203-.122 3.285-.364 37.754-8.474 72.074-31.88 96.638-65.906 24.534-33.987 38.046-77.01 38.046-121.145v-83.585c0-8.284-6.716-15-15-15z" fill="#604a43"/><g><path d="m378.782 174h-246.018c-7.19 0-13.369-5.102-14.729-12.163l-18.678-96.963c-1.034-5.369.935-10.875 5.139-14.371 4.205-3.496 9.979-4.426 15.067-2.431l55.694 21.842 70.529-65.876c5.764-5.384 14.714-5.384 20.478 0l70.528 65.876 55.691-21.841c5.103-2.002 10.889-1.06 15.096 2.455 4.205 3.515 6.159 9.043 5.096 14.42l-19.178 96.962c-1.39 7.026-7.553 12.09-14.715 12.09z" fill="#ffde46"/></g><path d="m407.578 50.527c-4.207-3.515-9.993-4.457-15.096-2.455l-55.691 21.841-70.528-65.875c-2.882-2.693-6.561-4.038-10.24-4.038v174h122.759c7.162 0 13.325-5.063 14.715-12.09l19.178-96.962c1.063-5.377-.891-10.906-5.097-14.421z" fill="#ffcd00"/><g clip-rule="evenodd" fill-rule="evenodd"><circle cx="256.023" cy="102" fill="#7c84e8" r="15"/><path d="m256.023 87v30c8.262 0 15-6.739 15-15s-6.738-15-15-15z" fill="#424ede"/></g></g></svg>